<svg xmlns="http://www.w3.org/2000/svg" version="1.0" viewBox="0 0 826 1427.5" preserveAspectRatio="xMidYMid meet" x="0px" y="0px"><g transform="translate(0.000000,1142.000000) scale(0.100000,-0.100000)" fill="#000000" stroke="none"><path d="M2730 10645 l0 -625 -1260 0 -1260 0 0 -1065 0 -1065 258 0 257 0 148 -3887 c81 -2139 148 -3894 148 -3900 -1 -10 626 -13 3104 -13 2476 0 3106 3 3109 13 3 10 298 7755 296 7780 0 4 117 7 260 7 l260 0 0 1065 0 1065 -1260 0 -1260 0 0 625 0 625 -1400 0 -1400 0 0 -625z m2060 -365 l0 -250 -660 0 -660 0 0 250 0 250 660 0 660 0 0 -250z m2520 -1320 l0 -330 -3180 0 -3180 0 0 330 0 330 3180 0 3180 0 0 -330z m-520 -1211 c0 -37 -137 -3667 -225 -5954 -19 -500 -35 -924 -35 -942 l0 -33 -2400 0 -2400 0 0 30 c0 17 -49 1318 -110 2893 -60 1574 -120 3129 -133 3455 l-22 592 2662 0 2663 0 0 -41z"/><path d="M2730 4305 l0 -2605 370 0 370 0 0 2605 0 2605 -370 0 -370 0 0 -2605z"/><path d="M4790 4270 l0 -2630 370 0 370 0 0 2630 0 2630 -370 0 -370 0 0 -2630z"/></g><text x="0" y="1157" fill="#000000" font-size="5px" font-weight="bold" font-family="'Helvetica Neue', Helvetica, Arial-Unicode, Arial, Sans-serif">Created by woghk</text><text x="0" y="1162" fill="#000000" font-size="5px" font-weight="bold" font-family="'Helvetica Neue', Helvetica, Arial-Unicode, Arial, Sans-serif">from the Noun Project</text></svg>