<?xml version="1.0" encoding="UTF-8" standalone="no"?>
<svg
   version="1.1"
   viewBox="-5 -10 10083.04 12374.64"
   id="svg3"
   width="10083.04"
   height="12374.64"
   xmlns="http://www.w3.org/2000/svg"
   xmlns:svg="http://www.w3.org/2000/svg">
  <defs
     id="defs3" />
  <g
     fill-rule="evenodd"
     id="g3"
     style="fill:#ffffff"
     transform="translate(-1008.48,-1912.68)">
    <path
       d="M 50,12.5 C 29.289,12.5 12.5,29.289 12.5,50 12.5,70.711 29.289,87.5 50,87.5 70.711,87.5 87.5,70.711 87.5,50 87.5,29.289 70.711,12.5 50,12.5 Z M 4.168,50 C 4.168,24.688 24.688,4.168 50,4.168 75.312,4.168 95.832,24.688 95.832,50 95.832,75.312 75.312,95.832 50,95.832 24.688,95.832 4.168,75.312 4.168,50 Z"
       id="path1"
       style="fill:#ffffff" />
    <path
       d="m 50,27.383 c -4.2734,0 -7.7383,3.4648 -7.7383,7.7383 0,4.2734 3.4648,7.7383 7.7383,7.7383 4.2735,0 7.7383,-3.4648 7.7383,-7.7383 0,-4.2734 -3.4648,-7.7383 -7.7383,-7.7383 z m -16.07,7.7383 c 0,-8.8789 7.1953,-16.074 16.07,-16.074 8.8789,0 16.074,7.1953 16.074,16.074 0,8.875 -7.1953,16.07 -16.074,16.07 -8.875,0 -16.07,-7.1953 -16.07,-16.07 z"
       id="path2"
       style="fill:#ffffff" />
    <path
       d="m 50,62.5 c -11.562,0 -21.301,7.8516 -24.152,18.523 -0.59375,2.2227 -2.8789,3.543 -5.1016,2.9492 -2.2227,-0.5938 -3.543,-2.8789 -2.9492,-5.1016 3.8008,-14.223 16.773,-24.703 32.203,-24.703 15.43,0 28.402,10.48 32.207,24.703 0.59375,2.2227 -0.72656,4.5078 -2.9492,5.1016 C 77.0314,84.56595 74.7502,83.24564 74.1564,81.023 71.3009,70.351 61.5624,62.5 50.0004,62.5 Z"
       id="path3"
       style="fill:#ffffff" />
  </g>
</svg>
